<svg width="28" height="28" viewBox="0 0 28 28" fill="none" xmlns="http://www.w3.org/2000/svg">
<path fill-rule="evenodd" clip-rule="evenodd" d="M16.434 7.94982C14.0909 5.60668 10.2919 5.60668 7.94877 7.94982C5.60562 10.293 5.60562 14.092 7.94877 16.4351C10.2919 18.7782 14.0909 18.7782 16.434 16.4351C18.7772 14.092 18.7772 10.293 16.434 7.94982ZM7.24166 7.24272C9.97533 4.50905 14.4075 4.50905 17.1412 7.24272C19.8748 9.97639 19.8748 14.4085 17.1412 17.1422C14.4075 19.8759 9.97533 19.8759 7.24166 17.1422C4.50799 14.4085 4.50799 9.97639 7.24166 7.24272Z" fill="black"/>
<path fill-rule="evenodd" clip-rule="evenodd" d="M17.292 18.001C17.4872 17.8058 17.7976 17.7995 17.9852 17.9871L22.2556 22.2575C22.4432 22.4451 22.437 22.7555 22.2417 22.9508C22.0464 23.146 21.7361 23.1522 21.5485 22.9646L17.2781 18.6942C17.0905 18.5066 17.0967 18.1963 17.292 18.001Z" fill="black"/>
</svg>
