<svg width="40" height="40" viewBox="0 0 40 40" fill="none" xmlns="http://www.w3.org/2000/svg">
<path fill-rule="evenodd" clip-rule="evenodd" d="M0.713867 15.7143C0.713867 15.3198 1.03366 15 1.42815 15H17.1424C17.5369 15 17.8567 15.3198 17.8567 15.7143C17.8567 16.1088 17.5369 16.4286 17.1424 16.4286H1.42815C1.03366 16.4286 0.713867 16.1088 0.713867 15.7143Z" fill="black"/>
<path fill-rule="evenodd" clip-rule="evenodd" d="M5 22.8569C5 22.4624 5.3198 22.1426 5.71429 22.1426H22.8571C23.2516 22.1426 23.5714 22.4624 23.5714 22.8569C23.5714 23.2514 23.2516 23.5711 22.8571 23.5711H5.71429C5.3198 23.5711 5 23.2514 5 22.8569Z" fill="black"/>
<path fill-rule="evenodd" clip-rule="evenodd" d="M9.28516 29.9994C9.28516 29.605 9.60495 29.2852 9.99944 29.2852H35.7137C36.1082 29.2852 36.428 29.605 36.428 29.9994C36.428 30.3939 36.1082 30.7137 35.7137 30.7137H9.99944C9.60495 30.7137 9.28516 30.3939 9.28516 29.9994Z" fill="black"/>
<path fill-rule="evenodd" clip-rule="evenodd" d="M31.579 9.39715C29.5296 7.34771 26.2068 7.34771 24.1573 9.39715C22.1079 11.4466 22.1079 14.7694 24.1573 16.8188C26.2068 18.8682 29.5296 18.8682 31.579 16.8188C33.6284 14.7694 33.6284 11.4466 31.579 9.39715ZM23.1472 8.38699C25.7545 5.77967 29.9818 5.77967 32.5891 8.38699C35.1965 10.9943 35.1965 15.2216 32.5891 17.8289C29.9818 20.4363 25.7545 20.4363 23.1472 17.8289C20.5399 15.2216 20.5399 10.9943 23.1472 8.38699Z" fill="black"/>
<path fill-rule="evenodd" clip-rule="evenodd" d="M31.4764 17.4523C31.7553 17.1734 32.2076 17.1734 32.4865 17.4523L37.4865 22.4523C37.7655 22.7313 37.7655 23.1835 37.4865 23.4625C37.2076 23.7414 36.7553 23.7414 36.4764 23.4625L31.4764 18.4625C31.1974 18.1835 31.1974 17.7313 31.4764 17.4523Z" fill="black"/>
</svg>
