<svg width="22" height="22" viewBox="0 0 22 22" fill="none" xmlns="http://www.w3.org/2000/svg">
<path fill-rule="evenodd" clip-rule="evenodd" d="M7.03356 19.0882L7.03343 19.0882C6.93283 19.0735 6.83306 19.059 6.73542 19.0381C4.9271 18.633 3.76339 17.5377 3.2671 15.7464C3.22601 15.5779 3.19971 15.4065 3.17329 15.2342L3.17329 15.2342C3.16304 15.1673 3.15277 15.1003 3.1416 15.0333V7.23486C3.15269 7.17056 3.16205 7.10626 3.17136 7.04229C3.18601 6.94168 3.20054 6.8419 3.22146 6.74425C3.62648 4.93013 4.72174 3.77206 6.51295 3.27574C6.68947 3.22838 6.86925 3.20051 7.04982 3.17253L7.04998 3.1725C7.1086 3.16342 7.1673 3.15432 7.22601 3.14453H15.024C15.0883 3.15562 15.1526 3.16498 15.2166 3.17429L15.2166 3.1743C15.3172 3.18894 15.417 3.20347 15.5146 3.2244C17.3229 3.62944 18.4866 4.72476 18.9829 6.51606C19.0229 6.66519 19.0467 6.81896 19.0705 6.97294L19.0705 6.973C19.0841 7.0605 19.0976 7.14805 19.1141 7.23486V15.0333C19.103 15.0976 19.0937 15.1619 19.0844 15.2259C19.0697 15.3265 19.0552 15.4263 19.0343 15.5239C18.6292 17.3323 17.534 18.4961 15.7428 18.9924C15.5937 19.0324 15.4399 19.0562 15.286 19.08L15.2859 19.08C15.1984 19.0936 15.1109 19.1071 15.024 19.1236L15.0297 19.1179H7.22601C7.16175 19.1069 7.09748 19.0975 7.03356 19.0882ZM11.1165 17.7031H11.1279H14.5962C14.9613 17.7031 15.3207 17.6689 15.6686 17.5434C16.9407 17.0927 17.6994 15.9974 17.7051 14.6169C17.7051 14.0382 17.7055 13.4592 17.7058 12.8801V12.8795V12.879C17.7069 11.1403 17.708 9.39989 17.6994 7.66272C17.6994 7.30903 17.6481 6.93821 17.5397 6.60734C17.1119 5.32946 16.0052 4.57073 14.6247 4.56502C14.0446 4.56502 13.4642 4.56467 12.8836 4.56431H12.8831H12.8826C11.1397 4.56324 9.39514 4.56217 7.65384 4.57073C7.30587 4.57073 6.94078 4.62207 6.61563 4.73046C5.34353 5.15832 4.57342 6.25935 4.57342 7.62849C4.56962 9.1878 4.57089 10.7471 4.57216 12.3064L4.57216 12.3099C4.57279 13.0884 4.57342 13.8669 4.57342 14.6454C4.57342 15.6837 4.98985 16.528 5.83411 17.1441C6.37604 17.5434 6.99783 17.7031 7.66525 17.7031H11.1165ZM15.2444 11.1324C15.2444 13.3915 13.3847 15.2512 11.1257 15.2512C8.86107 15.2512 7.00142 13.3858 7.01282 11.1267C7.01853 8.86759 8.86107 7.02495 11.1257 7.01354C13.3847 7.00783 15.2444 8.86759 15.2501 11.1267L15.2444 11.1324ZM13.824 11.1324C13.824 9.64915 12.6203 8.43973 11.1315 8.43403C9.64829 8.43403 8.43894 9.63774 8.43324 11.1267C8.43324 12.6099 9.63688 13.8193 11.1257 13.825C12.6089 13.825 13.8183 12.6213 13.824 11.1324ZM16.4573 6.8696C16.4744 6.31053 16.0124 5.83704 15.4419 5.81992C14.8715 5.80851 14.398 6.26489 14.3809 6.84108C14.3638 7.38874 14.8201 7.87364 15.3792 7.89076C15.961 7.90787 16.4402 7.45719 16.4573 6.8696Z" fill="black"/>
</svg>
