<svg width="20" height="20" viewBox="0 0 20 20" fill="none" xmlns="http://www.w3.org/2000/svg">
<path fill-rule="evenodd" clip-rule="evenodd" d="M2.5 9.99997C2.5 9.80272 2.6599 9.64282 2.85714 9.64282H17.1429C17.3401 9.64282 17.5 9.80272 17.5 9.99997C17.5 10.1972 17.3401 10.3571 17.1429 10.3571H2.85714C2.6599 10.3571 2.5 10.1972 2.5 9.99997Z" fill="black"/>
<path fill-rule="evenodd" clip-rule="evenodd" d="M10 2.5C10.1972 2.5 10.3571 2.6599 10.3571 2.85714L10.3571 17.1429C10.3571 17.3401 10.1972 17.5 10 17.5C9.80276 17.5 9.64286 17.3401 9.64286 17.1429L9.64286 2.85714C9.64286 2.6599 9.80276 2.5 10 2.5Z" fill="black"/>
</svg>
