<svg width="22" height="22" viewBox="0 0 22 22" fill="none" xmlns="http://www.w3.org/2000/svg">
<path d="M19.1087 8.68189V13.1774C19.0972 13.223 19.0858 13.2687 19.0801 13.3143C19.0288 13.7022 19.0003 14.1016 18.9147 14.4838C18.6923 15.505 18.1105 16.201 17.0781 16.4977C16.4963 16.6631 15.9031 16.7316 15.3099 16.7316C12.6747 16.743 10.0395 16.7373 7.41004 16.7373C6.69706 16.7373 5.98978 16.6859 5.29961 16.4863C4.6836 16.3094 4.15314 16.007 3.77668 15.4708C3.41164 14.9516 3.28045 14.3583 3.2063 13.7479C3.18348 13.5482 3.16637 13.3485 3.14355 13.1489C3.14355 11.6199 3.14355 10.091 3.14355 8.56209C3.16637 8.35671 3.18348 8.15133 3.2063 7.94595C3.25193 7.52379 3.34889 7.11874 3.55994 6.74792C3.89646 6.1546 4.44974 5.88077 5.07716 5.72103C5.75592 5.54988 6.4575 5.49854 7.15907 5.49854C9.7144 5.49854 12.2697 5.49854 14.8251 5.49854C15.5666 5.49854 16.3081 5.52706 17.0382 5.6868C17.5059 5.78949 17.9451 5.95493 18.3044 6.28011C18.755 6.69087 18.9318 7.23284 19.0117 7.81474C19.0516 8.09999 19.0744 8.39094 19.103 8.67619L19.1087 8.68189ZM9.28661 11.0437C9.28661 11.5971 9.28661 12.1562 9.28661 12.7096C9.28661 13.2116 9.66877 13.4398 10.1137 13.2116C11.1803 12.6582 12.2469 12.0992 13.3135 11.5401C13.5246 11.4317 13.6672 11.2776 13.6615 11.0323C13.6615 10.7927 13.5189 10.6444 13.3135 10.5417C12.2469 9.99403 11.186 9.43494 10.1194 8.88727C9.66307 8.65337 9.28661 8.88727 9.28091 9.3893C9.28091 9.94268 9.28091 10.4904 9.28091 11.0437H9.28661Z" fill="black"/>
</svg>
