<svg width="40" height="40" viewBox="0 0 40 40" fill="none" xmlns="http://www.w3.org/2000/svg">
<path fill-rule="evenodd" clip-rule="evenodd" d="M13.5718 12.857C13.5718 9.30664 16.4499 6.42847 20.0003 6.42847C23.5508 6.42847 26.4289 9.30664 26.4289 12.857C26.4289 16.4074 23.5508 19.2856 20.0003 19.2856C16.4499 19.2856 13.5718 16.4074 13.5718 12.857ZM20.0003 7.85704C17.2389 7.85704 15.0003 10.0956 15.0003 12.857C15.0003 15.6185 17.2389 17.857 20.0003 17.857C22.7618 17.857 25.0003 15.6185 25.0003 12.857C25.0003 10.0956 22.7618 7.85704 20.0003 7.85704Z" fill="black"/>
<path fill-rule="evenodd" clip-rule="evenodd" d="M7.14307 32.8572C7.14307 26.1107 12.9408 20.7144 20.0002 20.7144C27.0596 20.7144 32.8574 26.1107 32.8574 32.8572V32.8572C32.8574 33.2517 32.5376 33.5715 32.1431 33.5715V33.5715C31.7486 33.5715 31.4288 33.2517 31.4288 32.8572V32.8572C31.4288 26.9801 26.3534 22.1429 20.0002 22.1429C13.647 22.1429 8.57164 26.9801 8.57164 32.8572V32.8572C8.57164 33.2517 8.25184 33.5715 7.85735 33.5715V33.5715C7.46286 33.5715 7.14307 33.2517 7.14307 32.8572V32.8572Z" fill="black"/>
</svg>
