<svg width="28" height="28" viewBox="0 0 28 28" fill="none" xmlns="http://www.w3.org/2000/svg">
<path fill-rule="evenodd" clip-rule="evenodd" d="M11.4248 5.64646C11.2296 5.4512 10.913 5.4512 10.7177 5.64646L2.29311 14.0711L10.7177 22.4957C10.913 22.691 11.2296 22.691 11.4248 22.4957C11.6201 22.3004 11.6201 21.9839 11.4248 21.7886L3.70733 14.0711L11.4248 6.35357C11.6201 6.15831 11.6201 5.84172 11.4248 5.64646Z" fill="black"/>
<path fill-rule="evenodd" clip-rule="evenodd" d="M25.3491 13.9922C25.3491 13.716 25.1253 13.4922 24.8491 13.4922H3.54259C3.26645 13.4922 3.04259 13.716 3.04259 13.9922C3.04259 14.2683 3.26645 14.4922 3.54259 14.4922H24.8491C25.1253 14.4922 25.3491 14.2683 25.3491 13.9922Z" fill="black"/>
</svg>
