<svg width="28" height="28" viewBox="0 0 28 28" fill="none" xmlns="http://www.w3.org/2000/svg">
<path fill-rule="evenodd" clip-rule="evenodd" d="M5.58907 5.58671C5.78434 5.39145 6.10092 5.39145 6.29618 5.58671L22.4129 21.7035C22.6082 21.8987 22.6082 22.2153 22.4129 22.4106C22.2177 22.6058 21.9011 22.6058 21.7058 22.4106L5.58907 6.29381C5.39381 6.09855 5.39381 5.78197 5.58907 5.58671Z" fill="black"/>
<path fill-rule="evenodd" clip-rule="evenodd" d="M13.2944 14.7036C13.4897 14.8988 13.4897 15.2154 13.2944 15.4107L6.2944 22.4107C6.09913 22.6059 5.78255 22.6059 5.58729 22.4107C5.39203 22.2154 5.39203 21.8988 5.58729 21.7036L12.5873 14.7036C12.7826 14.5083 13.0991 14.5083 13.2944 14.7036Z" fill="black"/>
<path fill-rule="evenodd" clip-rule="evenodd" d="M22.3535 5.64645C22.5487 5.84171 22.5487 6.15829 22.3535 6.35355L15.3535 13.3536C15.1582 13.5488 14.8416 13.5488 14.6464 13.3536C14.4511 13.1583 14.4511 12.8417 14.6464 12.6464L21.6464 5.64645C21.8416 5.45118 22.1582 5.45118 22.3535 5.64645Z" fill="black"/>
</svg>
