<svg width="28" height="28" viewBox="0 0 28 28" fill="none" xmlns="http://www.w3.org/2000/svg">
<path fill-rule="evenodd" clip-rule="evenodd" d="M16.4248 5.64646C16.62 5.4512 16.9366 5.4512 17.1319 5.64646L25.5565 14.0711L17.1319 22.4957C16.9366 22.691 16.62 22.691 16.4248 22.4957C16.2295 22.3004 16.2295 21.9839 16.4248 21.7886L24.1423 14.0711L16.4248 6.35357C16.2295 6.15831 16.2295 5.84172 16.4248 5.64646Z" fill="black"/>
<path fill-rule="evenodd" clip-rule="evenodd" d="M2.5 13.9922C2.5 13.716 2.72386 13.4922 3 13.4922H24.3065C24.5827 13.4922 24.8065 13.716 24.8065 13.9922C24.8065 14.2683 24.5827 14.4922 24.3065 14.4922H3C2.72386 14.4922 2.5 14.2683 2.5 13.9922Z" fill="black"/>
</svg>
