<svg width="22" height="22" viewBox="0 0 22 22" fill="none" xmlns="http://www.w3.org/2000/svg">
<path fill-rule="evenodd" clip-rule="evenodd" d="M10.5633 16.7582C10.7174 16.77 10.8717 16.7818 11.026 16.7943L11.0314 16.7888C11.6971 16.7833 12.3573 16.7124 13.0066 16.5924C13.765 16.4559 14.5016 16.2267 15.2109 15.9102C16.1876 15.4737 17.0715 14.9061 17.8244 14.1476C18.7138 13.2527 19.3194 12.1994 19.5704 10.9552C19.745 10.1039 19.6741 9.25811 19.4394 8.4341C19.1339 7.37544 18.5446 6.47503 17.7589 5.70013C16.9132 4.8652 15.9202 4.25947 14.818 3.83928C13.4376 3.30449 12.0026 3.08076 10.5131 3.1517C9.27455 3.21718 8.0851 3.4682 6.95021 3.95388C5.98992 4.35224 5.11147 4.88157 4.35306 5.6019C3.72559 6.19126 3.22908 6.87339 2.86351 7.65374C2.42702 8.5869 2.28516 9.57462 2.38883 10.6005C2.45976 11.2445 2.66164 11.8557 2.94536 12.4396C3.37094 13.3181 3.98204 14.0385 4.72408 14.6606C5.19877 15.0589 5.71711 15.3973 6.27364 15.6756C6.41004 15.7411 6.45369 15.812 6.41004 15.9703C6.23878 16.5719 6.07711 17.1767 5.91524 17.7822C5.86568 17.9676 5.81609 18.1531 5.76621 18.3386C5.73348 18.4587 5.70619 18.5842 5.68983 18.7097C5.66254 18.928 5.78804 19.0316 5.99537 18.9662C6.083 18.9352 6.16576 18.8799 6.24365 18.8279L6.25727 18.8188C7.25575 18.1367 8.25424 17.4546 9.25272 16.767C9.36185 16.6906 9.47097 16.6688 9.60738 16.6797C9.92408 16.7091 10.2433 16.7336 10.5633 16.7582ZM14.9545 8.2813V9.38362C14.9975 9.33697 15.0376 9.29268 15.0759 9.25036C15.1542 9.16397 15.2249 9.0858 15.2982 9.01254C15.4144 8.89632 15.5312 8.7801 15.6482 8.66368C15.8828 8.43025 16.1182 8.19601 16.3512 7.95934C16.4549 7.85565 16.5695 7.82291 16.6895 7.91568C16.7986 7.99754 16.9078 8.08485 16.9896 8.18853C17.0933 8.32496 17.1151 8.50504 16.946 8.66875C16.738 8.86656 16.5406 9.07503 16.3432 9.2835C16.2248 9.40859 16.1064 9.53368 15.9857 9.65647C15.9038 9.73833 15.9038 9.79835 15.9693 9.88567C16.3185 10.3386 16.6622 10.7915 17.006 11.2445C17.0202 11.2643 17.0358 11.284 17.0516 11.3039C17.127 11.3987 17.2055 11.4975 17.1424 11.6374C17.0496 11.8393 16.9023 11.9866 16.6841 12.0467C16.5149 12.0958 16.384 12.0521 16.2748 11.8993C15.9638 11.4627 15.6419 11.0262 15.32 10.5951C15.2709 10.5241 15.1672 10.4205 15.129 10.4368C15.009 10.4859 14.9163 10.5787 14.9163 10.737C14.9206 10.8505 14.9215 10.964 14.9224 11.0775C14.9237 11.2478 14.925 11.418 14.9381 11.5883C14.9708 11.9975 14.758 12.0903 14.3597 12.063C14.076 12.0412 13.9996 11.9375 13.9996 11.6537V8.24856C13.9996 8.01391 14.0433 7.95388 14.2724 7.89385C14.3597 7.87203 14.4525 7.86111 14.5398 7.86111C14.8399 7.86657 14.9545 7.98662 14.9545 8.2813ZM8.6198 8.25402C8.72285 7.98281 8.89058 7.86256 9.18194 7.86112C9.49833 7.88842 9.74926 7.96485 9.88019 8.34133C10.1506 9.10493 10.4355 9.86563 10.7201 10.6255C10.826 10.9083 10.9318 11.191 11.0369 11.4737C11.1351 11.7356 11.0205 11.9266 10.7314 12.0303C10.4531 12.123 10.2512 12.0412 10.1585 11.7793C10.1093 11.6428 10.0712 11.5064 10.0384 11.37C10.0111 11.2663 9.96203 11.2336 9.85836 11.2336H8.55979C8.47249 11.2336 8.42338 11.2608 8.40156 11.3482C8.38246 11.4191 8.36064 11.49 8.33881 11.561C8.31699 11.6319 8.29516 11.7029 8.27606 11.7738C8.21059 12.003 8.0851 12.0848 7.85048 12.0576C7.474 12.0085 7.31032 11.7465 7.44127 11.3918C7.83411 10.3495 8.22696 9.30177 8.6198 8.25402ZM5.86988 11.6537V10.2949C5.86988 10.1417 5.86866 9.98915 5.86745 9.83696C5.86502 9.5338 5.86261 9.23224 5.86988 8.93069C5.86988 8.78335 5.83169 8.72332 5.67346 8.73423C5.51395 8.74242 5.35137 8.7414 5.18803 8.74037C5.13346 8.74003 5.07882 8.73969 5.02417 8.73969C4.85503 8.73969 4.6968 8.70149 4.63678 8.52687C4.57676 8.34679 4.54948 8.14488 4.69134 7.98662C4.75136 7.92114 4.86594 7.86657 4.95324 7.86657C5.87352 7.85567 6.78838 7.86109 7.70864 7.86653L7.71407 7.86657C7.97052 7.86657 8.1342 8.06302 8.12329 8.33041C8.11783 8.5487 7.93232 8.77789 7.70862 8.75606C7.58294 8.7438 7.45554 8.74704 7.32738 8.75029C7.22743 8.75284 7.12701 8.75539 7.02659 8.75061C6.86836 8.74515 6.81926 8.78335 6.81926 8.95252C6.82289 9.55259 6.82168 10.1502 6.82047 10.7487C6.81987 11.0482 6.81926 11.3479 6.81926 11.6483C6.81926 11.872 6.77015 11.9648 6.55191 12.0139C6.4155 12.0467 6.26273 12.0467 6.13178 12.0139C5.93535 11.9648 5.86988 11.8557 5.86988 11.6537ZM12.33 8.33587V9.65102L12.3191 9.64556C12.3191 9.78724 12.3197 9.92953 12.3203 10.072C12.3215 10.3576 12.3227 10.644 12.3191 10.928C12.3191 11.0862 12.3846 11.1353 12.5264 11.1353H13.3503C13.705 11.1408 13.8905 11.3973 13.7814 11.7465C13.7159 11.9757 13.6177 12.0467 13.3831 12.0467H11.7517C11.4679 12.0467 11.3261 11.9048 11.3261 11.621V8.34679C11.3261 8.04665 11.5061 7.86111 11.8062 7.86111C12.1445 7.86111 12.33 8.01391 12.33 8.33587ZM9.40054 10.405C9.49909 10.4044 9.60103 10.4037 9.70815 10.4037L9.7136 10.4092C9.56085 9.90722 9.41355 9.43797 9.26625 8.96872L9.2662 8.96854H9.22255L9.15707 9.165L8.79696 10.2291C8.76968 10.3001 8.73149 10.4037 8.86244 10.4037C9.03771 10.4073 9.21297 10.4062 9.40054 10.405Z" fill="black"/>
</svg>
