<svg width="28" height="28" viewBox="0 0 28 28" fill="none" xmlns="http://www.w3.org/2000/svg">
<path fill-rule="evenodd" clip-rule="evenodd" d="M6.5164 13.5H9.50746C9.56951 11.4257 10.0155 9.53718 10.7244 8.11954C10.9393 7.68957 11.1854 7.29097 11.4599 6.94105C8.71739 7.92807 6.71597 10.468 6.5164 13.5ZM14 5.5C9.30558 5.5 5.5 9.30558 5.5 14C5.5 18.6944 9.30558 22.5 14 22.5C18.6944 22.5 22.5 18.6944 22.5 14C22.5 9.30558 18.6944 5.5 14 5.5ZM13.5 6.58339C12.8407 6.80241 12.1746 7.45506 11.6188 8.56675C10.9899 9.82462 10.5698 11.5545 10.5079 13.5H13.5V6.58339ZM13.5 14.5H10.5079C10.5698 16.4455 10.9899 18.1754 11.6188 19.4332C12.1746 20.5449 12.8407 21.1976 13.5 21.4166V14.5ZM11.4599 21.0589C11.1854 20.709 10.9393 20.3104 10.7244 19.8805C10.0155 18.4628 9.56951 16.5743 9.50746 14.5H6.5164C6.71597 17.532 8.71738 20.0719 11.4599 21.0589ZM16.5401 21.0589C19.2826 20.0719 21.284 17.532 21.4836 14.5H18.4925C18.4305 16.5743 17.9845 18.4628 17.2756 19.8805C17.0607 20.3104 16.8146 20.709 16.5401 21.0589ZM17.4921 14.5H14.5V21.4166C15.1593 21.1976 15.8254 20.5449 16.3812 19.4332C17.0101 18.1754 17.4302 16.4455 17.4921 14.5ZM17.4921 13.5H14.5V6.58339C15.1593 6.80241 15.8254 7.45506 16.3812 8.56675C17.0101 9.82462 17.4302 11.5545 17.4921 13.5ZM18.4925 13.5C18.4305 11.4257 17.9845 9.53718 17.2756 8.11954C17.0607 7.68957 16.8146 7.29097 16.5401 6.94105C19.2826 7.92807 21.284 10.468 21.4836 13.5H18.4925Z" fill="black"/>
</svg>
