<?xml version="1.0" encoding="UTF-8"?>
<svg id="Layer_1" data-name="Layer 1" xmlns="http://www.w3.org/2000/svg" viewBox="0 0 1064.95 98.92">
  <defs>
    <style>
      .cls-1 {
        fill: #000;
        stroke-width: 0px;
      }
    </style>
  </defs>
  <path class="cls-1" d="M789,10.89h32.16V3.57h-66.53v90.14h34.37v-42.67h23.05v-7.33h-23.05V10.89ZM811.04,44.71v5.33h-23.05v42.67h-32.37V4.57h64.53v5.32h-32.16v34.81h23.05Z"/>
  <path class="cls-1" d="M860.18,7.52c-5.86,0-10.62,4.76-10.62,10.62v64.89c0,5.86,4.76,10.62,10.62,10.62s10.62-4.76,10.62-10.62V18.14c0-5.85-4.76-10.62-10.62-10.62ZM869.8,83.03c0,5.3-4.32,9.62-9.62,9.62s-9.62-4.32-9.62-9.62V18.14c0-5.3,4.32-9.62,9.62-9.62s9.62,4.31,9.62,9.62v64.89Z"/>
  <path class="cls-1" d="M860.18,2.24c-21.55,0-39.09,17.54-39.09,39.09v18.5c0,21.55,17.54,39.09,39.09,39.09s39.09-17.53,39.09-39.09v-18.5c0-21.55-17.53-39.09-39.09-39.09ZM898.27,59.84c0,21-17.09,38.09-38.09,38.09s-38.09-17.09-38.09-38.09v-18.5c0-21,17.09-38.09,38.09-38.09s38.09,17.09,38.09,38.09v18.5Z"/>
  <path class="cls-1" d="M242.28,5.28c-5.86,0-10.62,4.76-10.62,10.62v64.89c0,5.86,4.76,10.62,10.62,10.62s10.62-4.76,10.62-10.62V15.9c0-5.86-4.76-10.62-10.62-10.62ZM251.9,80.78c0,5.3-4.31,9.62-9.62,9.62s-9.62-4.32-9.62-9.62V15.9c0-5.3,4.31-9.62,9.62-9.62s9.62,4.32,9.62,9.62v64.89Z"/>
  <path class="cls-1" d="M242.28,0c-21.55,0-39.09,17.53-39.09,39.09v18.5c0,21.55,17.53,39.09,39.09,39.09s39.09-17.54,39.09-39.09v-18.5c0-21.55-17.53-39.09-39.09-39.09ZM280.37,57.59c0,21-17.09,38.09-38.09,38.09s-38.09-17.09-38.09-38.09v-18.5c0-21,17.09-38.09,38.09-38.09s38.09,17.09,38.09,38.09v18.5Z"/>
  <path class="cls-1" d="M689.93,40.73h-9.79V3.57h-34.37v90.14h34.37v-45.94h9.79v45.94h34.37V3.57h-34.37v37.15ZM690.93,4.57h32.37v88.14h-32.37v-45.94h-11.79v45.94h-32.37V4.57h32.37v37.15h11.79V4.57Z"/>
  <path class="cls-1" d="M1033.49,70.36c15.59-3.26,26.8-16.97,26.8-33.02,0-18.61-15.14-33.75-33.75-33.75h-37.07v91.85h34.18v-23.29l29.63,23.29h11.67l-31.47-25.09ZM1022.66,70.1v24.34h-32.18V4.59h36.07c18.06,0,32.75,14.69,32.75,32.75,0,15.93-11.37,29.49-27.05,32.24l-1.09.19,30.95,24.67h-8.46l-30.98-24.34Z"/>
  <path class="cls-1" d="M1052.68,37.31c0-4.08-3.32-7.4-7.4-7.4h-22.63v14.79h22.63c4.08,0,7.4-3.32,7.4-7.4ZM1023.66,30.92h21.63c3.53,0,6.4,2.87,6.4,6.4s-2.87,6.4-6.4,6.4h-21.63v-12.79Z"/>
  <path class="cls-1" d="M173.49,3.21l-16.95,39.62-6.79-17,9.68-22.62h-34.39l-16.69,39.01L92.75,3.21H0s0,7.18,0,7.18h28.43v83.02h34.18V10.39h23.94l33.75,84.24,25.05-58.54,23.4,58.54L207.88,3.21h-34.39ZM145.38,33.47l-25.05,58.54L87.23,9.39h-25.62v83.02H29.43V9.39H1v-5.19h91.07s16.24,40.64,16.24,40.64L125.69,4.21h32.21l-9.25,21.61,7.85,19.63,17.64-41.24h32.21l-37.58,87.81-23.4-58.54Z"/>
  <path class="cls-1" d="M945.36,65.64c0,7.84-6.38,14.22-14.22,14.22h-.19c-7.88,0-14.28-6.38-14.28-14.22V3.57h-8.17v58.44c0,19.62,15.96,35.58,35.58,35.58s35.61-15.97,35.61-35.61V3.57h-34.32v62.06ZM946.36,4.57h32.32v57.41c0,19.08-15.53,34.61-34.61,34.61s-34.58-15.51-34.58-34.58V4.57h6.17v61.06c0,8.39,6.86,15.22,15.28,15.22h.19c8.39,0,15.22-6.83,15.22-15.22V4.57Z"/>
  <path class="cls-1" d="M338.16,15.9c0-5.3,4.31-9.62,9.62-9.62s9.62,4.32,9.62,9.62v16.77h28.94l-.11-.59c-3.37-18.59-19.54-32.08-38.45-32.08-21.55,0-39.09,17.53-39.09,39.09v8.69h48.71v33c0,5.3-4.31,9.62-9.62,9.62s-9.62-4.31-9.62-9.62v-23.87h-29.47v.68c0,21.55,17.53,39.09,39.09,39.09s39.09-17.54,39.09-39.09v-16.87h-48.71V15.9ZM385.87,41.73v15.87c0,21-17.09,38.09-38.09,38.09s-37.91-16.91-38.09-37.77h27.47v22.87c0,5.85,4.76,10.62,10.62,10.62s10.62-4.76,10.62-10.62v-34h-48.71v-7.69c0-21,17.09-38.09,38.09-38.09,18.23,0,33.84,12.86,37.35,30.67h-26.73v-15.77c0-5.86-4.76-10.62-10.62-10.62s-10.62,4.76-10.62,10.62v25.83h48.71Z"/>
  <path class="cls-1" d="M587.85,15.9c0-5.3,4.32-9.62,9.62-9.62s9.62,4.32,9.62,9.62v16.77h28.94l-.11-.59c-3.37-18.59-19.54-32.08-38.45-32.08-21.55,0-39.09,17.53-39.09,39.09v8.69h48.71v33c0,5.3-4.32,9.62-9.62,9.62s-9.62-4.31-9.62-9.62v-23.87h-29.47v.68c0,21.55,17.54,39.09,39.09,39.09s39.09-17.54,39.09-39.09v-16.87h-48.71V15.9ZM635.56,41.73v15.87c0,21-17.09,38.09-38.09,38.09s-37.92-16.91-38.09-37.77h27.47v22.87c0,5.85,4.76,10.62,10.62,10.62s10.62-4.76,10.62-10.62v-34h-48.71v-7.69c0-21,17.09-38.09,38.09-38.09,18.23,0,33.84,12.86,37.35,30.67h-26.73v-15.77c0-5.86-4.76-10.62-10.62-10.62s-10.62,4.76-10.62,10.62v25.83h48.71Z"/>
  <path class="cls-1" d="M508.34.91h-.12c-11.13.05-20.34,6.6-24.02,17.11l-23.96,68.49h-29.78V3.57h-34.37v90.14h70.46l17.9-51.76c1.42-4.26,5.2-6.95,9.73-6.91,4.49.06,8.23,2.88,9.53,7.18l15.39,50.91v.43l40.57-.05-27.28-75.7c-3.76-10.44-12.97-16.9-24.05-16.9ZM519.96,92.56l-15.31-50.63c-1.43-4.72-5.54-7.82-10.47-7.89-4.92-.11-9.13,2.91-10.69,7.59l-17.67,51.08h-68.75V4.57h32.37v82.94h31.49l24.19-69.16c4.23-12.07,14.7-16.4,23.08-16.44h.1c8.37,0,18.8,4.26,23.12,16.24l26.79,74.36-38.27.05Z"/>
</svg>